# xmcd
#
# Track frame offsets:
#	150
#	17873
#	34213
#	50704
#	54816
#	72901
#	98999
#	121993
#	137328
#	160784
#	184907
#	204069
#	220583
#	243157
#	264380
#
# Disc length: 3830 seconds
#
# Revision: 1
# Processed by: cddbd v1.5.1PL0 Copyright (c) Steve Scherf et al.
# Submitted via: CDex 1.50Beta5
#
DISCID=c70ef40f
DTITLE=Kurupt - Against the Grain Volume 1
DYEAR=1900
DGENRE=
TTITLE0=Load up
TTITLE1=Now What
TTITLE2=I Call Shotz Part2
TTITLE3=Caller ID[Skit]
TTITLE4=Gangsta Noize
TTITLE5=Whut The People Say
TTITLE6=Mo Money 2 Fold
TTITLE7=Gangsta Perogative
TTITLE8=One, Two
TTITLE9=Jacc Move
TTITLE10=Bitch Make Me Rich
TTITLE11=What we Go Thru
TTITLE12=I Keep Tryin
TTITLE13=Where Ya Headed
TTITLE14=Don't Go 2 Sleep
EXTD=
EXTT0=
EXTT1=
EXTT2=
EXTT3=
EXTT4=
EXTT5=
EXTT6=
EXTT7=
EXTT8=
EXTT9=
EXTT10=
EXTT11=
EXTT12=
EXTT13=
EXTT14=
PLAYORDER=
